<svg width="24" height="24" viewBox="0 0 24 24" xmlns="http://www.w3.org/2000/svg">
    <path d="M12.665 1.65a1.804 1.804 0 0 1-.172 1.126c-.001 0-.07.148-.11.387A8.812 8.812 0 0 1 17 4.669c.033-.09.048-.151.05-.159.129-.462.349-.805.65-1.058.99-.83 2.564-.532 3.582.683.46.548.734 1.209.769 1.859.039.72-.223 1.372-.72 1.788a2.005 2.005 0 0 1-1.088.452c-.027.002-.047.005-.078.004a1.23 1.23 0 0 0-.064.007 8.9 8.9 0 0 1 .806 5.04c.262.01.437-.032.447-.034.422-.103.79-.081 1.124.046 1.083.414 1.54 1.766 1.039 3.078-.404 1.06-1.29 1.722-2.185 1.722a1.78 1.78 0 0 1-1.517-.843c0-.001-.096-.143-.292-.306a8.87 8.87 0 0 1-1.265 1.568.747.747 0 0 1-1.06-.022.75.75 0 0 1 .021-1.06 7.333 7.333 0 0 0 1.336-1.737.731.731 0 0 1 .251-.258.742.742 0 0 1 .834-.166c.076.034.152.07.223.107l.004.002c.75.392 1.123.921 1.23 1.094a.29.29 0 0 0 .13.102c.24.094.687-.208.888-.737.202-.53.074-1.049-.17-1.142a.311.311 0 0 0-.166-.01c-.211.062-.936.23-1.86-.064a.755.755 0 0 1-.256-.143.744.744 0 0 1-.347-.795 7.396 7.396 0 0 0-.549-4.758c-.59.56-.662 1.08-.665 1.103a.76.76 0 0 1-.814.671.743.743 0 0 1-.681-.79c.009-.124.118-1.24 1.329-2.256.969-.813 1.924-.907 2.178-.918a.492.492 0 0 0 .254-.107c.179-.15.193-.413.185-.557-.018-.324-.17-.68-.42-.977-.502-.597-1.176-.74-1.47-.496a.486.486 0 0 0-.148.233c-.056.25-.315 1.172-1.282 1.983-1.211 1.016-2.331.932-2.454.917a.75.75 0 0 1-.666-.825.739.739 0 0 1 .824-.666c.006-.002.491.018 1.105-.405a7.444 7.444 0 0 0-4.24-1.183.73.73 0 0 1-.375-.095.744.744 0 0 1-.545-.618l-.014-.127-.009-.125c-.048-.843.214-1.434.307-1.616a.3.3 0 0 0 .022-.164c-.045-.259-.529-.48-1.09-.384-.297.052-.567.187-.737.369-.07.073-.18.217-.154.363.009.052.035.1.076.147.162.15.678.687.899 1.63a.732.732 0 0 1 .01.294.745.745 0 0 1-.506.705 7.397 7.397 0 0 0-3.64 2.673c.75.208 1.216.02 1.237.01a.759.759 0 0 1 .988.37c.17.371.023.806-.343.985-.113.054-1.132.519-2.621-.024-1.186-.432-1.746-1.21-1.882-1.425a.494.494 0 0 0-.221-.168c-.357-.133-.943.234-1.21.97-.132.364-.155.75-.061 1.06.042.138.145.38.365.46.085.03.175.036.276.014.243-.077 1.173-.314 2.359.118 1.486.54 1.97 1.553 2.021 1.667a.75.75 0 0 1-1.371.607c-.004-.007-.237-.447-.937-.768a7.402 7.402 0 0 0 1.194 4.6.741.741 0 0 1-.034.862.761.761 0 0 1-.191.23c-.759.605-1.497.709-1.716.726a.293.293 0 0 0-.148.068c-.116.103-.111.301-.104.381.021.249.15.52.352.747.378.421.899.545 1.094.37a.293.293 0 0 0 .084-.142c.039-.2.198-.827.756-1.46v-.001l.084-.093.09-.091a.747.747 0 0 1 .84-.143.733.733 0 0 1 .324.15 7.394 7.394 0 0 0 4.064 1.69c-.174-.86-.63-1.222-.635-1.225a.75.75 0 0 1 .84-1.243c.102.07 1.014.724 1.288 2.28.22 1.242-.175 2.116-.293 2.343a.493.493 0 0 0-.036.274c.041.231.262.375.39.44.29.146.673.189 1.055.124.382-.066.728-.241.95-.477.098-.105.256-.315.216-.546a.502.502 0 0 0-.126-.246c-.19-.172-.86-.858-1.078-2.103-.274-1.556.36-2.481.433-2.583a.751.751 0 0 1 1.213.884c-.005.007-.331.515-.169 1.44.147.832.594 1.239.613 1.255.335.342.523.704.591 1.093.113.637-.106 1.305-.598 1.832-.447.475-1.08.804-1.785.929a3.556 3.556 0 0 1-.607.053c-.494 0-.972-.108-1.385-.317-.644-.326-1.077-.88-1.19-1.517A1.998 1.998 0 0 1 11.175 21l.014-.029a8.908 8.908 0 0 1-4.381-1.651 1.688 1.688 0 0 0-.157.387c-.102.423-.29.74-.556.979-.35.312-.788.463-1.249.463-.678 0-1.404-.327-1.962-.95-.42-.469-.68-1.043-.731-1.617-.056-.644.161-1.238.597-1.628a1.808 1.808 0 0 1 1.046-.447c.003-.001.178-.024.417-.127a8.909 8.909 0 0 1-1.052-5.021c-.079.015-.128.029-.134.031-.465.12-.872.101-1.242-.034-.608-.222-1.077-.744-1.287-1.435C.308 9.298.34 8.584.585 7.91c.54-1.487 1.917-2.31 3.133-1.865a2.012 2.012 0 0 1 .978.782c.002.003.025.04.072.096a8.907 8.907 0 0 1 3.758-3.05 1.723 1.723 0 0 0-.26-.366c-.304-.309-.473-.635-.536-.987-.102-.577.093-1.178.536-1.65C8.66.45 9.218.158 9.839.049c1.383-.247 2.625.46 2.826 1.602zM7.721 13.585a1.983 1.983 0 0 1 2.53-1.19 1.979 1.979 0 0 1 1.192 2.53.75.75 0 0 1-1.413-.507.478.478 0 0 0 .026-.228.48.48 0 0 0-.923-.096.48.48 0 0 0 .288.61.749.749 0 1 1-.509 1.41 1.98 1.98 0 0 1-1.19-2.529zm7.22-2.383c.514.127.946.446 1.219.898.272.453.353.984.225 1.497a1.981 1.981 0 0 1-2.394 1.443.748.748 0 0 1-.548-.907.747.747 0 0 1 .908-.548.476.476 0 1 0 .23-.927.475.475 0 0 0-.578.348.75.75 0 1 1-1.456-.36 1.98 1.98 0 0 1 2.394-1.444zm-3.456-3.634a.75.75 0 0 1-.361 1.456.478.478 0 1 0 .348.578.75.75 0 1 1 1.456.36 1.98 1.98 0 0 1-2.393 1.445 1.964 1.964 0 0 1-1.219-.899A1.962 1.962 0 0 1 9.09 9.01c.127-.511.446-.944.898-1.218a1.962 1.962 0 0 1 1.497-.225z" fill="#FFF" fill-rule="evenodd"/>
</svg>
