<svg width="24" height="24" viewBox="0 0 24 24" xmlns="http://www.w3.org/2000/svg">
    <path d="m4.25 2.66 5.028.01a.75.75 0 0 1 .748.75.757.757 0 0 1-.751.75l-5.03-.01c-.752.008-1.395.272-1.905.777a2.666 2.666 0 0 0-.797 1.894L1.5 15.284a2.688 2.688 0 0 0 2.672 2.7l5.724.03c.17 0 .334.059.466.165l5.173 4.155c.175.154.283.178.315.162.047-.02.144-.156.146-.441l.016-3.26a.75.75 0 0 1 .75-.747h.003l.353.002h.014c.712 0 1.383-.276 1.89-.777.51-.505.792-1.177.796-1.894l.027-.43c.03-.412.4-.713.801-.696.414.03.726.388.697.8l-.027.381a4.12 4.12 0 0 1-1.239 2.905c-.7.692-1.6 1.11-2.569 1.195l-.012 2.528c-.004.844-.392 1.518-1.036 1.804-.203.09-.416.135-.632.135-.434 0-.878-.179-1.263-.523l-4.939-3.966-5.462-.028A4.19 4.19 0 0 1 0 15.276l.043-8.452A4.19 4.19 0 0 1 4.228 2.66h.022zM17.81 0A6.196 6.196 0 0 1 24 6.19a6.196 6.196 0 0 1-6.19 6.189 6.196 6.196 0 0 1-6.189-6.19A6.196 6.196 0 0 1 17.811 0zm-7.137 10.638a.863.863 0 1 1 0 1.725.863.863 0 0 1 0-1.725zm-3.452 0a.863.863 0 1 1 0 1.725.863.863 0 0 1 0-1.725zM17.811 1.5a4.695 4.695 0 0 0-4.69 4.69 4.695 4.695 0 0 0 4.69 4.689 4.695 4.695 0 0 0 4.69-4.69A4.695 4.695 0 0 0 17.81 1.5zm0 1.317a.75.75 0 0 1 .75.75v1.872h1.872a.75.75 0 1 1 0 1.5H18.56v1.873a.75.75 0 1 1-1.5 0V6.94h-1.872a.75.75 0 1 1 0-1.5h1.872V3.567a.75.75 0 0 1 .75-.75z" fill="#FFF" fill-rule="evenodd"/>
</svg>
