<svg width="24" height="24" viewBox="0 0 24 24" xmlns="http://www.w3.org/2000/svg">
    <path d="M17.762 11.524A6.245 6.245 0 0 1 24 17.762 6.245 6.245 0 0 1 17.762 24a6.245 6.245 0 0 1-6.238-6.238 6.245 6.245 0 0 1 6.238-6.238zM15.885 0a.75.75 0 0 1 .75.75v2.277h.763a3.781 3.781 0 0 1 3.777 3.777V9.83a.75.75 0 1 1-1.5 0V8.552H1.5v10.36a2.28 2.28 0 0 0 2.277 2.276h6.81a.75.75 0 1 1 0 1.5h-6.81A3.781 3.781 0 0 1 0 18.911V6.804a3.781 3.781 0 0 1 3.777-3.777h.763V.75a.75.75 0 1 1 1.5 0v2.277h9.095V.75a.75.75 0 0 1 .75-.75zm1.877 13.024a4.743 4.743 0 0 0-4.738 4.738 4.743 4.743 0 0 0 4.738 4.738 4.743 4.743 0 0 0 4.738-4.738 4.743 4.743 0 0 0-4.738-4.738zm0 1.341a.75.75 0 0 1 .75.75v1.897h1.896a.75.75 0 1 1 0 1.5h-1.897v1.896a.75.75 0 1 1-1.5 0v-1.896h-1.896a.75.75 0 0 1 0-1.5h1.896v-1.897a.75.75 0 0 1 .75-.75zM5.6 15.895a1.125 1.125 0 1 1 0 2.25 1.125 1.125 0 0 1 0-2.25zm3.858 0a1.124 1.124 0 1 1 0 2.25 1.125 1.125 0 0 1 0-2.25zm-3.858-4.491a1.125 1.125 0 1 1 0 2.25l-.123-.007a1.124 1.124 0 0 1 .123-2.243zm3.859 0a1.124 1.124 0 1 1 0 2.25l-.123-.007a1.125 1.125 0 0 1 .123-2.243zm3.929 0c.365 0 .69.174.895.444a5.014 5.014 0 0 0-1.741 1.424 1.126 1.126 0 0 1 .846-1.868zm4.009-6.877H3.778A2.28 2.28 0 0 0 1.5 6.804v.248h18.174v-.248a2.28 2.28 0 0 0-2.276-2.277z" fill="#FFF" fill-rule="evenodd"/>
</svg>
