<svg width="24" height="24" viewBox="0 0 24 24" xmlns="http://www.w3.org/2000/svg">
    <path d="M20.085 3.893a.75.75 0 0 1 0 1.5h-6a.75.75 0 0 1 0-1.5h6zm-3 2.79a.75.75 0 0 1 0 1.5h-3a.75.75 0 0 1 0-1.5h3zm1.425 17.16a5.25 5.25 0 1 1 0-10.5 5.25 5.25 0 0 1 0 10.5zm0-1.5a3.75 3.75 0 1 0 0-7.5 3.75 3.75 0 0 0 0 7.5zm-1.485-3a.75.75 0 0 1 0-1.5h2.978a.75.75 0 0 1 0 1.5h-2.978zM10.5 18a.75.75 0 0 1 0 1.5H3.75A3.75 3.75 0 0 1 0 15.75v-12A3.75 3.75 0 0 1 3.75 0h16.5A3.75 3.75 0 0 1 24 3.75v7.5a.75.75 0 1 1-1.5 0v-7.5a2.25 2.25 0 0 0-2.25-2.25H3.75A2.25 2.25 0 0 0 1.5 3.75v12A2.25 2.25 0 0 0 3.75 18h6.75zm-1.115-7.407 2.702.996.147.073c.444.286.711.778.711 1.305v1.373a.75.75 0 0 1-1.5 0v-1.373a.052.052 0 0 0-.003-.017l-2.701-.996-.148-.074a1.552 1.552 0 0 1-.71-1.305v-.907c0-.272.079-.415.265-.667.064-.087.14-.181.28-.354l.045-.055a.702.702 0 0 0 .16-.44v-1.33a1.26 1.26 0 0 0-1.268-1.227h-.121A1.263 1.263 0 0 0 6 6.803v1.346c0 .161.057.318.167.452l.037.046c.14.173.216.267.28.354.186.252.266.395.266.667v.929c0 .528-.267 1.02-.711 1.306a.75.75 0 0 1-.155.076l-1.92.683a.75.75 0 1 1-.503-1.414l1.787-.635a.055.055 0 0 0 .002-.015v-.742c-.04-.054-.099-.126-.216-.27L5 9.543a2.208 2.208 0 0 1-.5-1.39V6.78a2.77 2.77 0 0 1 2.73-2.686h.132a2.764 2.764 0 0 1 2.77 2.708v1.353c-.002.506-.179.996-.492 1.378l-.042.052c-.117.144-.175.216-.216.27v.72c0 .006.001.011.003.017z" fill="#FFF" fill-rule="evenodd"/>
</svg>
