<svg width="24" height="24" viewBox="0 0 24 24" xmlns="http://www.w3.org/2000/svg">
    <path d="M14.25 0A3.754 3.754 0 0 1 18 3.75v9.865a.75.75 0 1 1-1.5 0V3.75c0-1.24-1.01-2.25-2.25-2.25H1.5v18.75c0 1.24 1.01 2.25 2.25 2.25h9a.75.75 0 1 1 0 1.5h-9A3.754 3.754 0 0 1 0 20.25V.75A.75.75 0 0 1 .75 0h13.5zm3.744 16.5c.147 0 .285.06.386.172a.592.592 0 0 1 .14.508l-1.204 6.364a.547.547 0 0 1-.526.456h-.374a.515.515 0 0 1-.386-.172.59.59 0 0 1-.142-.508l.813-4.282a5.924 5.924 0 0 1-.963.502.51.51 0 0 1-.5-.055.584.584 0 0 1-.227-.585l.042-.219a.563.563 0 0 1 .296-.397c.925-.47 1.672-1.012 2.22-1.61a.516.516 0 0 1 .383-.174zM12 12.865a.75.75 0 1 1 0 1.5H4.5a.75.75 0 1 1 0-1.5H12zm-3-3.75a.75.75 0 1 1 0 1.5H4.5a.75.75 0 1 1 0-1.5H9zm4.5-3.75a.75.75 0 1 1 0 1.5h-9a.75.75 0 1 1 0-1.5h9zm10.35 11.452a.517.517 0 0 0-.387-.172H20.04a.546.546 0 0 0-.526.457l-.063.337a.591.591 0 0 0 .14.506c.103.111.24.173.386.173h2.106a13.204 13.204 0 0 0-1.252 1.998c-.368.73-.68 1.498-.926 2.282-.104.329-.19.628-.256.89a.586.586 0 0 0 .122.528.522.522 0 0 0 .398.184h.299c.246 0 .46-.177.52-.43.082-.343.213-.786.386-1.313.177-.54.41-1.121.691-1.728.28-.604.59-1.157.92-1.644.328-.486.63-.854.9-1.093.052-.06.071-.283.105-.468a.588.588 0 0 0-.14-.507" fill="#FFF" fill-rule="evenodd"/>
</svg>
